<?xml version="1.0" standalone="no"?><svg xmlns="http://www.w3.org/2000/svg" viewBox="0 0 1440 320"><path fill="#1cfc03" fill-opacity="1" d="M0,224L12.6,192C25.3,160,51,96,76,58.7C101.1,21,126,11,152,58.7C176.8,107,202,213,227,256C252.6,299,278,277,303,245.3C328.4,213,354,171,379,176C404.2,181,429,235,455,234.7C480,235,505,181,531,154.7C555.8,128,581,128,606,160C631.6,192,657,256,682,277.3C707.4,299,733,277,758,240C783.2,203,808,149,834,160C858.9,171,884,245,909,250.7C934.7,256,960,192,985,186.7C1010.5,181,1036,235,1061,218.7C1086.3,203,1112,117,1137,101.3C1162.1,85,1187,139,1213,186.7C1237.9,235,1263,277,1288,282.7C1313.7,288,1339,256,1364,250.7C1389.5,245,1415,267,1427,277.3L1440,288L1440,320L1427.4,320C1414.7,320,1389,320,1364,320C1338.9,320,1314,320,1288,320C1263.2,320,1238,320,1213,320C1187.4,320,1162,320,1137,320C1111.6,320,1086,320,1061,320C1035.8,320,1011,320,985,320C960,320,935,320,909,320C884.2,320,859,320,834,320C808.4,320,783,320,758,320C732.6,320,707,320,682,320C656.8,320,632,320,606,320C581.1,320,556,320,531,320C505.3,320,480,320,455,320C429.5,320,404,320,379,320C353.7,320,328,320,303,320C277.9,320,253,320,227,320C202.1,320,177,320,152,320C126.3,320,101,320,76,320C50.5,320,25,320,13,320L0,320Z"></path></svg>